SRRun01_grf
version=1
nRows=18
nColumns=19
inDegrees=no
endheader
time	ground_force_r_vx	ground_force_r_vy	ground_force_r_vz	ground_force_r_px	ground_force_r_py	ground_force_r_pz	ground_force_r_mx	ground_force_r_my	ground_force_r_mz	ground_force_l_vx	ground_force_l_vy	ground_force_l_vz	ground_force_l_px	ground_force_l_py	ground_force_l_pz	ground_force_l_mx	ground_force_l_my	ground_force_l_mz
    139.99600000	      0.00000000	      0.00000000	      0.00000000	      0.00000000	      0.00000000	      0.00000000	      0.00000000	      0.00000000	      0.00000000	   -165.13622159	   1539.11220793	     20.04781335	      1.05881130	      0.00000000	     -0.38080894	      0.00001302	    -25.41026809	      0.00011351
    139.99700000	      0.00000000	      0.00000000	      0.00000000	      0.00000000	      0.00000000	      0.00000000	      0.00000000	      0.00000000	      0.00000000	   -175.50098788	   1545.79281068	     43.77960952	      1.05603632	      0.00000000	     -0.37939615	      0.00001678	     -8.83262136	      0.00010910
    139.99800000	      0.00000000	      0.00000000	      0.00000000	      0.00000000	      0.00000000	      0.00000000	      0.00000000	      0.00000000	      0.00000000	   -186.32068295	   1552.57687743	     65.65314039	      1.05327597	      0.00000000	     -0.37809737	      0.00002047	      7.27691696	      0.00010385
    139.99900000	      0.00000000	      0.00000000	      0.00000000	      0.00000000	      0.00000000	      0.00000000	      0.00000000	      0.00000000	      0.00000000	   -197.35233827	   1559.50344207	     84.56160732	      1.05063122	      0.00000000	     -0.37697233	      0.00002399	     22.32277088	      0.00009837
    140.00000000	      0.00000000	      0.00000000	      0.00000000	      0.00000000	      0.00000000	      0.00000000	      0.00000000	      0.00000000	      0.00000000	   -208.27731851	   1566.63625632	     99.54056360	      1.04818838	      0.00000000	     -0.37606904	      0.00002729	     35.71112326	      0.00009323
    140.00100000	      0.00000000	      0.00000000	      0.00000000	      0.00000000	      0.00000000	      0.00000000	      0.00000000	      0.00000000	      0.00000000	   -218.70729241	   1574.05616665	    109.84239925	      1.04601294	      0.00000000	     -0.37541984	      0.00003030	     46.88440307	      0.00008895
    140.00200000	      0.00000000	      0.00000000	      0.00000000	      0.00000000	      0.00000000	      0.00000000	      0.00000000	      0.00000000	      0.00000000	   -228.20164443	   1581.85207635	    114.99349224	      1.04414665	      0.00000000	     -0.37503910	      0.00003300	     55.35855896	      0.00008595
    140.00300000	      0.00000000	      0.00000000	      0.00000000	      0.00000000	      0.00000000	      0.00000000	      0.00000000	      0.00000000	      0.00000000	   -236.29641717	   1590.11026407	    114.82856748	      1.04260734	      0.00000000	     -0.37492272	      0.00003536	     60.76029825	      0.00008452
    140.00400000	      0.00000000	      0.00000000	      0.00000000	      0.00000000	      0.00000000	      0.00000000	      0.00000000	      0.00000000	      0.00000000	   -242.54306339	   1598.90199401	    109.49933173	      1.04139098	      0.00000000	     -0.37504965	      0.00003737	     62.86088874	      0.00008476
    140.00500000	      0.00000000	      0.00000000	      0.00000000	      0.00000000	      0.00000000	      0.00000000	      0.00000000	      0.00000000	      0.00000000	   -246.55360741	   1608.27015154	     99.45745464	      1.04047471	      0.00000000	     -0.37538515	      0.00003900	     61.60305575	      0.00008666
    140.00600000	      0.00000000	      0.00000000	      0.00000000	      0.00000000	      0.00000000	      0.00000000	      0.00000000	      0.00000000	      0.00000000	   -248.04745730	   1618.21664441	     85.41487155	      1.03982004	      0.00000000	     -0.37588520	      0.00004024	     57.11783299	      0.00009002
    140.00700000	      0.00000000	      0.00000000	      0.00000000	      0.00000000	      0.00000000	      0.00000000	      0.00000000	      0.00000000	      0.00000000	   -246.89423076	   1628.69287266	     68.28664664	      1.03937596	      0.00000000	     -0.37650125	      0.00004108	     49.72878913	      0.00009453
    140.00800000	      0.00000000	      0.00000000	      0.00000000	      0.00000000	      0.00000000	      0.00000000	      0.00000000	      0.00000000	      0.00000000	   -243.14678510	   1639.59520277	     49.12290486	      1.03908186	      0.00000000	     -0.37718480	      0.00004150	     39.94188027	      0.00009978
    140.00900000	      0.00000000	      0.00000000	      0.00000000	      0.00000000	      0.00000000	      0.00000000	      0.00000000	      0.00000000	      0.00000000	   -237.05933217	   1650.76628117	     29.03653298	      1.03887032	      0.00000000	     -0.37789104	      0.00004149	     28.42041195	      0.00010530
    140.01000000	      0.00000000	      0.00000000	      0.00000000	      0.00000000	      0.00000000	      0.00000000	      0.00000000	      0.00000000	      0.00000000	   -229.08697251	   1662.00190983	      9.13270160	      1.03866999	      0.00000000	     -0.37858164	      0.00004105	     15.94615786	      0.00011062
    140.01100000	      0.00000000	      0.00000000	      0.00000000	      0.00000000	      0.00000000	      0.00000000	      0.00000000	      0.00000000	      0.00000000	   -219.86488799	   1673.06269462	     -9.55481568	      1.03840835	      0.00000000	     -0.37922634	      0.00004021	      3.36923023	      0.00011529
    140.01200000	      0.00000000	      0.00000000	      0.00000000	      0.00000000	      0.00000000	      0.00000000	      0.00000000	      0.00000000	      0.00000000	   -210.16747501	   1683.68975907	    -26.11674842	      1.03801470	      0.00000000	     -0.37980362	      0.00003899	     -8.44949591	      0.00011894
    140.01300000	      0.00000000	      0.00000000	      0.00000000	      0.00000000	      0.00000000	      0.00000000	      0.00000000	      0.00000000	      0.00000000	   -200.84977446	   1693.62388383	    -39.80834214	      1.03742361	      0.00000000	     -0.38030046	      0.00003743	    -18.69880622	      0.00012132
